<svg width="80" height="80" viewBox="0 0 80 80" fill="none" xmlns="http://www.w3.org/2000/svg">
<path d="M63.0034 33.3333C64.3202 35.6185 66.4867 37.2908 69.031 37.9857C71.5753 38.6806 74.2911 38.3419 76.5867 37.0433C76.8567 39.4555 76.3676 41.8918 75.1875 44.0129C74.0075 46.1339 72.1953 47.8342 70.0034 48.8767L70 70H46.6667V63.3333C46.6672 61.6514 46.032 60.0314 44.8884 58.7982C43.7447 57.5649 42.1772 56.8095 40.5 56.6833L40 56.6667C38.3181 56.6661 36.6981 57.3014 35.4649 58.445C34.2316 59.5886 33.4762 61.1561 33.35 62.8333L33.3334 63.3333V70H10V48.88C7.80385 47.839 5.98762 46.1381 4.80497 44.0148C3.62233 41.8915 3.13231 39.4519 3.40336 37.0367C5.69881 38.3379 8.4156 38.6787 10.9614 37.985C13.5071 37.2913 15.6754 35.6192 16.9934 33.3333H63.0034ZM59.7667 40H20.23L19.9767 40.2633C18.54 41.6633 16.86 42.7967 15.0234 43.6033L14.7034 43.7333L16.6667 44.6667L16.6634 63.3333L26.67 63.33V63.09L26.7034 62.3467C27.2 55.6267 32.6367 50.35 39.55 50.02L40.2434 50.0033L40.9867 50.0367C44.2271 50.277 47.2682 51.6924 49.5386 54.0168C51.8091 56.3413 53.1526 59.4148 53.3167 62.66L53.33 63.33L63.3334 63.3333L63.3367 44.6667L65.2934 43.7333L64.9767 43.6C63.1382 42.795 61.4602 41.6646 60.0234 40.2633L59.7667 40ZM56.7867 10C57.0251 11.6537 57.6159 13.2368 58.5192 14.6424C59.4225 16.0479 60.6171 17.2431 62.0222 18.147C63.4274 19.0509 65.0103 19.6424 66.6638 19.8816C68.3174 20.1208 70.003 20.002 71.6067 19.5333C71.3213 22.2952 70.0602 24.8648 68.05 26.7803C66.0399 28.6957 63.4125 29.8314 60.64 29.9833L60 30H20C17.1133 30.0005 14.3288 28.9307 12.185 26.9974C10.0412 25.0642 8.69028 22.4048 8.39335 19.5333C9.99704 20.002 11.6827 20.1208 13.3362 19.8816C14.9898 19.6424 16.5727 19.0509 17.9778 18.147C19.383 17.2431 20.5776 16.0479 21.4808 14.6424C22.3841 13.2368 22.9749 11.6537 23.2134 10H56.7867ZM52 16.6667H27.9967C26.7958 19.0182 25.1017 21.0829 23.03 22.72L22.2034 23.3333H57.7934L57.7534 23.3067C55.6093 21.7909 53.8147 19.8337 52.49 17.5667L52 16.6667Z" fill="#FF0000"/>
</svg>
