<svg width="80" height="80" viewBox="0 0 80 80" fill="none" xmlns="http://www.w3.org/2000/svg">
<rect width="80" height="80" rx="40" fill="black"/>
<mask id="mask0_12_24" style="mask-type:alpha" maskUnits="userSpaceOnUse" x="10" y="10" width="60" height="60">
<circle cx="40" cy="40" r="30" fill="#D9D9D9"/>
</mask>
<g mask="url(#mask0_12_24)">
<path d="M40 6.66666C21.59 6.66666 6.66663 21.59 6.66663 40C6.66663 58.41 21.59 73.3333 40 73.3333C58.41 73.3333 73.3333 58.41 73.3333 40C73.3333 21.59 58.41 6.66666 40 6.66666Z" stroke="white" stroke-width="5" stroke-linecap="round" stroke-linejoin="round"/>
<path d="M14.2366 61.1533C14.2366 61.1533 21.6666 51.6667 39.9999 51.6667C58.3332 51.6667 65.7666 61.1533 65.7666 61.1533M39.9999 40C42.6521 40 45.1956 38.9464 47.071 37.0711C48.9463 35.1957 49.9999 32.6522 49.9999 30C49.9999 27.3478 48.9463 24.8043 47.071 22.9289C45.1956 21.0536 42.6521 20 39.9999 20C37.3477 20 34.8042 21.0536 32.9288 22.9289C31.0535 24.8043 29.9999 27.3478 29.9999 30C29.9999 32.6522 31.0535 35.1957 32.9288 37.0711C34.8042 38.9464 37.3477 40 39.9999 40V40Z" stroke="white" stroke-width="5" stroke-linecap="round" stroke-linejoin="round"/>
</g>
</svg>
