<svg width="200" height="113" viewBox="0 0 200 113" fill="none" xmlns="http://www.w3.org/2000/svg">
<g clip-path="url(#clip0_12_31)">
<path d="M40.5405 0H8.10811C3.41081 0 0 2.21836 0 5.27344V107.227C0 110.282 3.41081 112.5 8.10811 112.5H191.892C196.589 112.5 200 110.282 200 107.227V5.27344C200 2.21836 196.589 0 191.892 0H40.5405ZM5.40541 107.227V5.27344C5.40541 4.17305 6.41622 3.51562 8.10811 3.51562H37.8378V108.984H8.10811C6.41622 108.984 5.40541 108.327 5.40541 107.227ZM43.2432 108.984V3.51562H156.757V108.984H43.2432ZM194.595 5.27344V107.227C194.595 108.327 193.584 108.984 191.892 108.984H162.162V3.51562H191.892C193.584 3.51562 194.595 4.17305 194.595 5.27344Z" fill="black"/>
<path d="M79.8757 35.4516C79.4678 35.2752 78.9942 35.1739 78.5051 35.1585C78.0159 35.143 77.5295 35.2139 77.0973 35.3637C76.6677 35.5149 76.3088 35.7388 76.0586 36.0117C75.8084 36.2846 75.6761 36.5963 75.6757 36.9141V79.1016C75.6759 79.4195 75.8088 79.7315 76.0601 80.0042C76.3113 80.277 76.6717 80.5003 77.1027 80.6503C77.5337 80.8004 78.0192 80.8717 78.5075 80.8565C78.9958 80.8413 79.4687 80.7402 79.8757 80.5641L128.524 59.4703C128.893 59.3092 129.196 59.0916 129.405 58.8365C129.614 58.5815 129.723 58.2969 129.723 58.0078C129.723 57.7188 129.614 57.4342 129.405 57.1791C129.196 56.924 128.893 56.7064 128.524 56.5453L79.8757 35.4516V35.4516ZM81.0811 75.818V40.1977L122.157 58.0078L81.0811 75.818ZM27.027 28.125H16.2162C15.4994 28.125 14.8119 28.3102 14.3051 28.6399C13.7982 28.9695 13.5135 29.4166 13.5135 29.8828C13.5135 30.349 13.7982 30.7961 14.3051 31.1258C14.8119 31.4554 15.4994 31.6406 16.2162 31.6406H27.027C27.7438 31.6406 28.4312 31.4554 28.9381 31.1258C29.445 30.7961 29.7297 30.349 29.7297 29.8828C29.7297 29.4166 29.445 28.9695 28.9381 28.6399C28.4312 28.3102 27.7438 28.125 27.027 28.125ZM16.2162 17.5781H27.027C27.7438 17.5781 28.4312 17.3929 28.9381 17.0633C29.445 16.7336 29.7297 16.2865 29.7297 15.8203C29.7297 15.3541 29.445 14.907 28.9381 14.5774C28.4312 14.2477 27.7438 14.0625 27.027 14.0625H16.2162C15.4994 14.0625 14.8119 14.2477 14.3051 14.5774C13.7982 14.907 13.5135 15.3541 13.5135 15.8203C13.5135 16.2865 13.7982 16.7336 14.3051 17.0633C14.8119 17.3929 15.4994 17.5781 16.2162 17.5781ZM27.027 42.1875H16.2162C15.4994 42.1875 14.8119 42.3727 14.3051 42.7024C13.7982 43.032 13.5135 43.4791 13.5135 43.9453C13.5135 44.4115 13.7982 44.8586 14.3051 45.1883C14.8119 45.5179 15.4994 45.7031 16.2162 45.7031H27.027C27.7438 45.7031 28.4312 45.5179 28.9381 45.1883C29.445 44.8586 29.7297 44.4115 29.7297 43.9453C29.7297 43.4791 29.445 43.032 28.9381 42.7024C28.4312 42.3727 27.7438 42.1875 27.027 42.1875ZM27.027 56.25H16.2162C15.4994 56.25 14.8119 56.4352 14.3051 56.7649C13.7982 57.0945 13.5135 57.5416 13.5135 58.0078C13.5135 58.474 13.7982 58.9211 14.3051 59.2508C14.8119 59.5804 15.4994 59.7656 16.2162 59.7656H27.027C27.7438 59.7656 28.4312 59.5804 28.9381 59.2508C29.445 58.9211 29.7297 58.474 29.7297 58.0078C29.7297 57.5416 29.445 57.0945 28.9381 56.7649C28.4312 56.4352 27.7438 56.25 27.027 56.25V56.25ZM27.027 70.3125H16.2162C15.4994 70.3125 14.8119 70.4977 14.3051 70.8274C13.7982 71.157 13.5135 71.6041 13.5135 72.0703C13.5135 72.5365 13.7982 72.9836 14.3051 73.3133C14.8119 73.6429 15.4994 73.8281 16.2162 73.8281H27.027C27.7438 73.8281 28.4312 73.6429 28.9381 73.3133C29.445 72.9836 29.7297 72.5365 29.7297 72.0703C29.7297 71.6041 29.445 71.157 28.9381 70.8274C28.4312 70.4977 27.7438 70.3125 27.027 70.3125ZM27.027 84.375H16.2162C15.4994 84.375 14.8119 84.5602 14.3051 84.8899C13.7982 85.2195 13.5135 85.6666 13.5135 86.1328C13.5135 86.599 13.7982 87.0461 14.3051 87.3758C14.8119 87.7054 15.4994 87.8906 16.2162 87.8906H27.027C27.7438 87.8906 28.4312 87.7054 28.9381 87.3758C29.445 87.0461 29.7297 86.599 29.7297 86.1328C29.7297 85.6666 29.445 85.2195 28.9381 84.8899C28.4312 84.5602 27.7438 84.375 27.027 84.375ZM27.027 98.4375H16.2162C15.4994 98.4375 14.8119 98.6227 14.3051 98.9524C13.7982 99.282 13.5135 99.7291 13.5135 100.195C13.5135 100.662 13.7982 101.109 14.3051 101.438C14.8119 101.768 15.4994 101.953 16.2162 101.953H27.027C27.7438 101.953 28.4312 101.768 28.9381 101.438C29.445 101.109 29.7297 100.662 29.7297 100.195C29.7297 99.7291 29.445 99.282 28.9381 98.9524C28.4312 98.6227 27.7438 98.4375 27.027 98.4375ZM172.973 31.6406H183.784C184.501 31.6406 185.188 31.4554 185.695 31.1258C186.202 30.7961 186.486 30.349 186.486 29.8828C186.486 29.4166 186.202 28.9695 185.695 28.6399C185.188 28.3102 184.501 28.125 183.784 28.125H172.973C172.256 28.125 171.569 28.3102 171.062 28.6399C170.555 28.9695 170.27 29.4166 170.27 29.8828C170.27 30.349 170.555 30.7961 171.062 31.1258C171.569 31.4554 172.256 31.6406 172.973 31.6406ZM172.973 17.5781H183.784C184.501 17.5781 185.188 17.3929 185.695 17.0633C186.202 16.7336 186.486 16.2865 186.486 15.8203C186.486 15.3541 186.202 14.907 185.695 14.5774C185.188 14.2477 184.501 14.0625 183.784 14.0625H172.973C172.256 14.0625 171.569 14.2477 171.062 14.5774C170.555 14.907 170.27 15.3541 170.27 15.8203C170.27 16.2865 170.555 16.7336 171.062 17.0633C171.569 17.3929 172.256 17.5781 172.973 17.5781ZM172.973 45.7031H183.784C184.501 45.7031 185.188 45.5179 185.695 45.1883C186.202 44.8586 186.486 44.4115 186.486 43.9453C186.486 43.4791 186.202 43.032 185.695 42.7024C185.188 42.3727 184.501 42.1875 183.784 42.1875H172.973C172.256 42.1875 171.569 42.3727 171.062 42.7024C170.555 43.032 170.27 43.4791 170.27 43.9453C170.27 44.4115 170.555 44.8586 171.062 45.1883C171.569 45.5179 172.256 45.7031 172.973 45.7031ZM172.973 59.7656H183.784C184.501 59.7656 185.188 59.5804 185.695 59.2508C186.202 58.9211 186.486 58.474 186.486 58.0078C186.486 57.5416 186.202 57.0945 185.695 56.7649C185.188 56.4352 184.501 56.25 183.784 56.25H172.973C172.256 56.25 171.569 56.4352 171.062 56.7649C170.555 57.0945 170.27 57.5416 170.27 58.0078C170.27 58.474 170.555 58.9211 171.062 59.2508C171.569 59.5804 172.256 59.7656 172.973 59.7656ZM172.973 73.8281H183.784C184.501 73.8281 185.188 73.6429 185.695 73.3133C186.202 72.9836 186.486 72.5365 186.486 72.0703C186.486 71.6041 186.202 71.157 185.695 70.8274C185.188 70.4977 184.501 70.3125 183.784 70.3125H172.973C172.256 70.3125 171.569 70.4977 171.062 70.8274C170.555 71.157 170.27 71.6041 170.27 72.0703C170.27 72.5365 170.555 72.9836 171.062 73.3133C171.569 73.6429 172.256 73.8281 172.973 73.8281ZM172.973 87.8906H183.784C184.501 87.8906 185.188 87.7054 185.695 87.3758C186.202 87.0461 186.486 86.599 186.486 86.1328C186.486 85.6666 186.202 85.2195 185.695 84.8899C185.188 84.5602 184.501 84.375 183.784 84.375H172.973C172.256 84.375 171.569 84.5602 171.062 84.8899C170.555 85.2195 170.27 85.6666 170.27 86.1328C170.27 86.599 170.555 87.0461 171.062 87.3758C171.569 87.7054 172.256 87.8906 172.973 87.8906ZM183.784 98.4375H172.973C172.256 98.4375 171.569 98.6227 171.062 98.9524C170.555 99.282 170.27 99.7291 170.27 100.195C170.27 100.662 170.555 101.109 171.062 101.438C171.569 101.768 172.256 101.953 172.973 101.953H183.784C184.501 101.953 185.188 101.768 185.695 101.438C186.202 101.109 186.486 100.662 186.486 100.195C186.486 99.7291 186.202 99.282 185.695 98.9524C185.188 98.6227 184.501 98.4375 183.784 98.4375Z" fill="black"/>
</g>
<defs>
<clipPath id="clip0_12_31">
<rect width="200" height="112.5" fill="white"/>
</clipPath>
</defs>
</svg>
